<?xml version="1.0" encoding="UTF-8" standalone="no"?>
<svg xmlns:rdf="http://www.w3.org/1999/02/22-rdf-syntax-ns#" xmlns="http://www.w3.org/2000/svg" height="393.562" width="939.067" version="1.1" xmlns:cc="http://creativecommons.org/ns#" xmlns:dc="http://purl.org/dc/elements/1.1/">
 <g stroke="#FFFFFF" transform="translate(-72.375 -177.031)">
  <path d="m792.086 362.09c-3.68625 6.50375-7.13875 13.375-9.535 20.0738-1.64 4.58375-2.78375 9.0875-3.17 13.3388-1.095 12.0438 0.18625 22.1775 8.54625 32.64 20.1975 25.2738 63.1988 41.7862 121.294 36.745 98.7112-8.565 77.5388-120.062-8.865-120.089l-737.076-0.2275c-33.6888 0.26625-51.0504 0.7625-86.8296 12.1475 30.0719-19.6788 42.8943-35.6512 83.6115-35.6512 246.532 0 493.063-0.55 739.593 0 49.5412 0.11 99.2325 23.9462 106.754 72.3188 3.8125 24.5275-4.5288 49.0475-22.2925 67.8575-38.4612 40.7288-128.451 40.5575-182.124 11.5588-16.4312-8.8775-29.4575-20.4562-36.5612-34.39-8.10125-15.8925-8.49625-34.85 2.55125-56.3575 0.53875-1.0475 1.3525-2.20625 2.3625-3.42375 7.065-8.52375 23.6638-19.9362 21.7412-16.5412z" fill-rule="evenodd" stroke-width="0.27" fill="#FFFFFF"/>
  <path d="m878.707 446.53c-21.1362 0-38.2938-17.3762-38.2938-38.7838 0-21.4088 17.1575-38.785 38.2938-38.785 21.1375 0 38.2938 17.3762 38.2938 38.785 0 21.4075-17.1562 38.7838-38.2938 38.7838z" fill-rule="evenodd" stroke-width="0.27" fill="#FFFFFF"/>
  <g fill="none">
   <path d="m393.241 551.592h398.4l-202.59-340.822-195.81 340.822z" stroke-width="30.0001"/>
   <path d="m200.222 328.75 125.176 206.15 126.188-206.072" stroke-width="30.0001"/>
   <path d="m215.932 344.587 218.962 0.0675" stroke-width="2.50016"/>
  </g>
 </g>
</svg>
